<?xml version="1.0" encoding="UTF-8" standalone="no"?>
<svg
   xmlns:dc="http://purl.org/dc/elements/1.1/"
   xmlns:cc="http://creativecommons.org/ns#"
   xmlns:rdf="http://www.w3.org/1999/02/22-rdf-syntax-ns#"
   xmlns:svg="http://www.w3.org/2000/svg"
   xmlns="http://www.w3.org/2000/svg"
   xmlns:sodipodi="http://sodipodi.sourceforge.net/DTD/sodipodi-0.dtd"
   xmlns:inkscape="http://www.inkscape.org/namespaces/inkscape"
   width="210mm"
   height="297mm"
   viewBox="0 0 210 297"
   version="1.1"
   id="svg8"
   inkscape:version="1.0 (4035a4fb49, 2020-05-01)"
   sodipodi:docname="connectors.svg">
  <defs
     id="defs2" />
  <sodipodi:namedview
     id="base"
     pagecolor="#ffffff"
     bordercolor="#666666"
     borderopacity="1.0"
     inkscape:pageopacity="0.0"
     inkscape:pageshadow="2"
     inkscape:zoom="0.87654166"
     inkscape:cx="308.62666"
     inkscape:cy="269.83792"
     inkscape:document-units="mm"
     inkscape:current-layer="layer1"
     inkscape:document-rotation="0"
     showgrid="false"
     inkscape:window-width="1368"
     inkscape:window-height="860"
     inkscape:window-x="-6"
     inkscape:window-y="-6"
     inkscape:window-maximized="1" />
  <metadata
     id="metadata5">
    <rdf:RDF>
      <cc:Work
         rdf:about="">
        <dc:format>image/svg+xml</dc:format>
        <dc:type
           rdf:resource="http://purl.org/dc/dcmitype/StillImage" />
        <dc:title />
      </cc:Work>
    </rdf:RDF>
  </metadata>
  <g
     inkscape:label="Layer 1"
     inkscape:groupmode="layer"
     id="layer1">
    <path
       id="conn4"
       style="opacity:0.75;fill:none;stroke:#000000;stroke-width:0.264583px;stroke-linecap:butt;stroke-linejoin:miter;stroke-opacity:1"
       d="m 130.12001,0.07148032 c 4.19748,6.53681128 8.3862,14.84444168 8.16085,21.71627568 -0.22535,6.871834 -3.36576,11.880883 -8.54703,15.135254 -3.10343,1.870226 -6.91136,3.70555 -10.59053,2.58838 -2.91324,-0.734596 -3.79229,-4.421228 -2.2715,-6.766399 1.85806,-3.205801 5.90235,-4.783777 9.46779,-3.800011 5.93384,1.203866 9.92808,7.297899 9.60293,13.183993 0.0121,5.217871 -2.44439,10.068501 -5.31538,14.28337 -2.5162,2.92027 -5.02049,5.920752 -8.06747,8.316153 -1.84507,1.23235 -3.91615,2.90599 -6.23579,2.81173"
       sodipodi:nodetypes="czcccccccc"
       inkscape:label="#conn4" />
    <path
       style="opacity:0.75;fill:none;stroke:#000000;stroke-width:0.264583px;stroke-linecap:butt;stroke-linejoin:miter;stroke-opacity:1"
       d="m 51.139131,0.11925333 c 5.46462,2.62425127 16.4556,8.31860727 13.60715,16.44196467 -3.19061,9.09915 -9.08803,15.345314 -13.41816,23.623513 -1.33197,2.546424 -2.71879,5.077783 -3.77976,7.74851 -0.83262,2.095905 -2.22289,8.273598 -2.83482,10.772323 -2.26532,9.250072 0.043,-0.508079 -2.45685,10.205352"
       id="conn2"
       inkscape:label="#conn2" />
    <path
       id="conn3"
       style="opacity:0.75;fill:none;stroke:#000000;stroke-width:0.264583px;stroke-linecap:butt;stroke-linejoin:miter;stroke-opacity:1"
       d="m 81.970333,0.09204117 c 2.50069,2.58171733 6.17467,3.27576233 9.10243,5.16526033 2.7284,1.760833 4.10522,5.2511745 4.10171,8.3740165 -0.005,4.601953 -1.44966,9.067573 -2.69556,13.492307 -0.94429,3.353604 -1.8647,6.742673 -2.41465,10.178129 -0.4002,2.499985 0.15703,5.262383 2.11484,7.026463 2.1389,1.927259 3.16435,4.727231 2.26054,7.57903 -1.39092,4.388786 -3.86946,8.290756 -5.94788,12.355349 -1.02227,1.999159 -2.21851,3.908209 -3.49762,5.755039"
       sodipodi:nodetypes="csssssssc"
       inkscape:label="#conn3" />
    <path
       style="opacity:0.75;fill:none;stroke:#000000;stroke-width:0.264583px;stroke-linecap:butt;stroke-linejoin:miter;stroke-opacity:1"
       d="m 15.045512,0.04594674 c -0.62996,1.70089196 -1.51241,3.32858526 -1.88988,5.10267726 -1.35128,6.351006 5.171559,12.536781 6.803569,18.520829 0.40329,1.47876 0.82066,3.00433 0.75595,4.53572 -0.28894,6.8382 -2.57009,12.84384 -4.535709,19.276775"
       id="conn1" />
    <path
       id="conn5"
       style="opacity:0.75;fill:none;stroke:#000000;stroke-width:0.264583px;stroke-linecap:butt;stroke-linejoin:miter;stroke-opacity:1"
       d="m 171.38143,0.0344407 c 2.02627,10.3092023 1.22202,20.9571633 1.82187,31.4670123 0.29312,5.135767 1.15327,12.611033 -2.48028,15.372519 -4.32028,3.28341 -2.96876,-6.037606 1.07284,-2.398775 5.37485,4.83921 2.81398,11.505295 -3.46134,11.545019 -2.84685,0.01802 -10.41464,-2.013028 -4.1966,-2.735165 6.06907,-0.704837 12.32947,1.481628 17.60099,5.137303 6.32949,4.389341 -2.80462,9.851033 -7.07633,10.109268 -6.55765,0.396438 -12.95224,-0.309199 -19.41878,-0.702137"
       sodipodi:nodetypes="csssssssc"
       inkscape:label="#conn5" />
  </g>
</svg>
