<?xml version="1.0" encoding="UTF-8"?>
<svg width="210mm" height="297mm" version="1.1" viewBox="0 0 210 297" xmlns="http://www.w3.org/2000/svg">
 <path d="m130.12 0.0714803c4.19748 6.53681 8.3862 14.8444 8.16085 21.7163s-3.36576 11.8809-8.54703 15.1353c-3.10343 1.87023-6.91136 3.70555-10.5905 2.58838-2.91324-0.734596-3.79229-4.42123-2.2715-6.7664 1.85806-3.2058 5.90235-4.78378 9.46779-3.80001 5.93384 1.20387 9.92808 7.2979 9.60293 13.184 0.0121 5.21787-2.44439 10.0685-5.31538 14.2834-2.5162 2.92027-5.02049 5.92075-8.06747 8.31615-1.84507 1.23235-3.91615 2.90599-6.23579 2.81173" style="fill:none;opacity:.75;stroke-width:.264583px;stroke:#000000"/>
 <path d="m51.1391 0.119253c5.46462 2.62425 16.4556 8.31861 13.6072 16.442-3.19061 9.09915-9.08803 15.3453-13.4182 23.6235-1.33197 2.54642-2.71879 5.07778-3.77976 7.74851-0.83262 2.0959-2.22289 8.2736-2.83482 10.7723-2.26532 9.25007 0.043-0.508079-2.45685 10.2054" style="fill:none;opacity:.75;stroke-width:.264583px;stroke:#000000"/>
 <path d="m81.9703 0.0920412c2.50069 2.58172 6.17467 3.27576 9.10243 5.16526 2.7284 1.76083 4.10522 5.25117 4.10171 8.37402-5e-3 4.60195-1.44966 9.06757-2.69556 13.4923-0.94429 3.3536-1.8647 6.74267-2.41465 10.1781-0.4002 2.49998 0.15703 5.26238 2.11484 7.02646 2.1389 1.92726 3.16435 4.72723 2.26054 7.57903-1.39092 4.38879-3.86946 8.29076-5.94788 12.3553-1.02227 1.99916-2.21851 3.90821-3.49762 5.75504" style="fill:none;opacity:.75;stroke-width:.264583px;stroke:#000000"/>
 <path d="m15.0455 0.0459467c-0.62996 1.70089-1.51241 3.32859-1.88988 5.10268-1.35128 6.35101 5.17156 12.5368 6.80357 18.5208 0.40329 1.47876 0.82066 3.00433 0.75595 4.53572-0.28894 6.8382-2.57009 12.8438-4.53571 19.2768" style="fill:none;opacity:.75;stroke-width:.264583px;stroke:#000000"/>
 <path d="m171.381 0.0344407c2.02627 10.3092 1.22202 20.9572 1.82187 31.467 0.29312 5.13577 1.15327 12.611-2.48028 15.3725-4.32028 3.28341-2.96876-6.03761 1.07284-2.39878 5.37485 4.83921 2.81398 11.5053-3.46134 11.545-2.84685 0.01802-10.4146-2.01303-4.1966-2.73516 6.06907-0.704837 12.3295 1.48163 17.601 5.1373 6.32949 4.38934-2.80462 9.85103-7.07633 10.1093-6.55765 0.396438-12.9522-0.309199-19.4188-0.702137" style="fill:none;opacity:.75;stroke-width:.264583px;stroke:#000000"/>
</svg>
