<?xml version="1.0" encoding="UTF-8"?>
<svg id="svg8" width="210mm" height="297mm" version="1.1" viewBox="0 0 210 297" xmlns="http://www.w3.org/2000/svg" xmlns:cc="http://creativecommons.org/ns#" xmlns:dc="http://purl.org/dc/elements/1.1/" xmlns:rdf="http://www.w3.org/1999/02/22-rdf-syntax-ns#">
 <metadata id="metadata5">
  <rdf:RDF>
   <cc:Work rdf:about="">
    <dc:format>image/svg+xml</dc:format>
    <dc:type rdf:resource="http://purl.org/dc/dcmitype/StillImage"/>
    <dc:title/>
   </cc:Work>
  </rdf:RDF>
 </metadata>
 <g id="layer1">
  <path id="conn4" d="m131.327 35.3759c4.19748 6.53681 8.3862 14.8444 8.16085 21.7163s-3.36576 11.8809-8.54703 15.1353c-3.10343 1.87023-6.91136 3.70555-10.5905 2.58838-2.91324-0.734596-3.79229-4.42123-2.2715-6.7664 1.85806-3.2058 5.90235-4.78378 9.46779-3.80001 5.93384 1.20387 9.92808 7.2979 9.60293 13.184 0.0121 5.21787-2.44439 10.0685-5.31538 14.2834-2.5162 2.92027-5.02049 5.92075-8.06747 8.31615-1.84507 1.23235-3.91615 2.90599-6.23579 2.81173" style="fill:none;opacity:.75;stroke-width:.264583px;stroke:#000000"/>
  <path id="conn2" d="m52.3465 35.407c5.46462 2.62425 16.4556 8.31861 13.6072 16.442-3.19061 9.09915-9.08803 15.3453-13.4182 23.6235-1.33197 2.54642-2.71879 5.07778-3.77976 7.74851-0.83262 2.0959-2.22289 8.2736-2.83482 10.7723-2.26532 9.25007 0.043-0.508079-2.45685 10.2054" style="fill:none;opacity:.75;stroke-width:.264583px;stroke:#000000"/>
  <path id="conn3" d="m83.1777 34.5782c2.50069 2.58172 6.17467 3.27576 9.10243 5.16526 2.7284 1.76083 4.10522 5.25118 4.10171 8.37402-5e-3 4.60195-1.44966 9.06757-2.69556 13.4923-0.94429 3.3536-1.8647 6.74267-2.41465 10.1781-0.4002 2.49998 0.15703 5.26238 2.11484 7.02646 2.1389 1.92726 3.16435 4.72723 2.26054 7.57903-1.39092 4.38879-3.86946 8.29076-5.94788 12.3553-1.02227 1.99916-2.21851 3.90821-3.49762 5.75504" style="fill:none;opacity:.75;stroke-width:.264583px;stroke:#000000"/>
  <path id="conn1" d="m16.2529 50.7007c-0.62996 1.70089-1.51241 3.32858-1.88988 5.10268-1.35128 6.35101 5.17156 12.5368 6.80357 18.5208 0.40329 1.47876 0.82066 3.00433 0.75595 4.53572-0.28894 6.8382-2.57009 12.8438-4.53571 19.2768" style="fill:none;opacity:.75;stroke-width:.264583px;stroke:#000000"/>
  <path id="conn5" d="m178.009 33.9369c2.70679 10.808 1.63243 21.9712 2.43374 32.9896 0.39157 5.38426 1.54059 13.2212-3.31327 16.1163-5.77124 3.44228-3.96581-6.32974 1.43315-2.51484 7.17997 5.07336 3.75904 12.062-4.62383 12.1036-3.80295 0.01889-13.9124-2.11043-5.60601-2.86751 8.10735-0.738941 16.4703 1.55332 23.5122 5.38588 8.45522 4.60173-3.74655 10.3277-9.45289 10.5984-8.76002 0.41562-17.3022-0.32416-25.9405-0.73611" style="fill:none;opacity:.75;stroke-width:.264583px;stroke:#000000"/>
 </g>
</svg>
